<svg version="1" xmlns="http://www.w3.org/2000/svg" width="933.333" height="933.333" viewBox="0 0 700.000000 700.000000"><path d="M485.7 81.6c-.1.1-4.2.4-9.2.8-9 .6-13.9 1.1-18.5 2.1-1.4.3-4.1.8-6 1.1-11 1.7-41.2 11.7-44.4 14.5-1.3 1.2-5.6 1.2-5.6 0 0-1.3-11.4-8.9-17.4-11.6-8.8-3.9-18.3-5.2-37.1-4.9-9.3.1-18.6.4-20.5.8-9.8 1.8-26 10.1-31.1 16-2.1 2.4-2.1 2.4-6.3.7-6.9-3-22.6-7.9-31.6-10-11-2.5-17.6-3.6-29-4.6-7.4-.7-31.2-.7-35-.1-1.4.3-5.2.7-8.5 1-11.8 1.1-31 5.7-45.2 10.8-10.4 3.7-31.1 13.9-40.3 19.8-37.3 24-67.5 60.1-83.5 99.5-4.7 11.6-9.8 27.1-11.1 34-.2 1.1-.8 4.3-1.4 7.1-5.7 27.6-4.3 64.8 3.6 94.9 2.1 8 5.3 18.5 6.4 21 .5 1.1 2.1 5.1 3.6 9C26.2 405.8 42.1 430 60 448c9.3 9.4 11.1 11 20 18.1 24.2 19.2 62 35.5 94.3 40.5 1.5.2 4.2.6 6 .9 11.8 1.9 36.1 2.4 50.7 1.2 10.9-1 12-1.2 25-3.7 3-.6 6.6-1.3 8-1.6 1.4-.2 3.6-.9 5-1.4 4.5-1.6 14.2-4.1 14.6-3.8.2.2.6 24 1 52.8.7 64.2.7 64.2 1.7 65.7 1.9 3 5.4 1.2 13.8-6.9 10.8-10.5 15.3-14.5 20.9-18.8 2.4-1.9 5.3-4.3 6.4-5.3 1.1-.9 2.3-1.7 2.7-1.7.4 0 1.4-.6 2.1-1.3 7.8-7.6 53.6-31.7 69.6-36.7 1.5-.5 6.5-2.2 11.2-4 16.1-5.8 41.2-13.1 101-29.1 24-6.4 59.3-19.8 76.5-28.9 37.9-20.2 65.6-48.3 84.9-85.8 11.1-21.7 19.5-49.1 22.1-71.7.4-3.3.9-6.9 1.2-8 .9-4.2 1.1-36.4.2-44.5-4.9-45.2-21.8-86.2-48.9-118.5-4.4-5.2-22.3-22.9-26.9-26.5-2.4-1.9-4.9-4-5.5-4.6-2-1.9-19.5-13.4-20.5-13.4-.5 0-1.1-.4-1.3-.8-.6-1.6-27.1-14-36.4-17.1-9.7-3.2-22.7-6.7-28.4-7.6-1.9-.3-4.6-.8-6-1-1.4-.3-3.5-.7-4.7-1-5-.9-33.9-2.5-34.6-1.9zM212.4 226.1c24.7 5.2 46.9 24.1 54.4 46.4 4.6 13.6 6 29.9 3.5 40.8-9.7 42.2-51.5 67.5-92.3 56-21.1-5.9-41-23.4-48-42.1-5.8-15.5-7.4-33.1-4-45.9 10.2-39.1 48-63.3 86.4-55.2zm295.9-.7c14.7 2.4 32.8 12.4 43.6 24.1 14.8 16.1 21.7 43.1 16.6 65-6.1 26.6-27.4 48.5-53.2 55-9.3 2.3-11.4 2.6-19.1 2.5-20.1-.1-39.3-8.6-54.3-24.1-12-12.3-19-31-19.1-51-.2-34.6 27-65.7 62.2-71.3 7.3-1.2 16.8-1.2 23.3-.2z"/></svg>